<svg xmlns="http://www.w3.org/2000/svg" viewBox="22.0 -8.0 97.18939632545931 287.3657742782152">
  <path d="M86.48955380577428,264.5204199475066 L86.48955380577428,266.95443569553805 L85.45396325459318,266.95443569553805 L85.45396325459318,269.3355380577428 L83.13333333333334,269.3355380577428 L83.13333333333334,264.0819947506562 C83.13333333333334,263.49238845144356 83.23160104986877,262.98593175853017 83.43569553805774,262.57018372703413 C83.6927034120735,262.0334908136483 84.08577427821523,261.5950656167979 84.60734908136483,261.26246719160105 C85.12892388451445,260.9223097112861 85.67317585301838,260.75601049868766 86.24010498687664,260.75601049868766 L86.48955380577428,260.7635695538058 L86.48955380577428,263.1975853018373 C86.43664041994751,263.1900262467192 86.39884514435695,263.1900262467192 86.36860892388452,263.1900262467192 C86.08136482939634,263.1900262467192 85.85459317585303,263.2882939632546 85.69585301837272,263.4772703412074 C85.53711286089239,263.6738057742782 85.45396325459318,263.95349081364833 85.45396325459318,264.3087664041995 L85.45396325459318,264.5204199475066 L86.48955380577428,264.5204199475066 Z M88.74971128608925,265.7979002624672 L88.74971128608925,269.3355380577428 L87.3134908136483,269.3355380577428 L87.3134908136483,264.4977427821523 L89.1654593175853,264.4977427821523 C89.72482939632546,264.4977427821523 90.16325459317586,264.63380577427824 90.47317585301838,264.9134908136483 C90.81333333333333,265.2309711286089 90.98719160104987,265.62404199475066 90.98719160104987,266.1002624671916 C90.98719160104987,266.59160104986876 90.77553805774279,267.00734908136485 90.34467191601051,267.3399475065617 L91.17616797900263,269.3355380577428 L89.66435695538058,269.3355380577428 L88.96892388451444,267.77837270341206 L88.96892388451444,266.5311286089239 L89.0823097112861,266.5311286089239 C89.3846719160105,266.5311286089239 89.5358530183727,266.40262467191604 89.5358530183727,266.13805774278217 C89.5358530183727,265.91128608923884 89.36199475065618,265.7979002624672 89.0142782152231,265.7979002624672 L88.74971128608925,265.7979002624672 Z M94.23002624671916,266.3799475065617 L94.23002624671916,267.46089238845144 L93.2927034120735,267.46089238845144 C93.16419947506563,267.46089238845144 93.08104986876641,267.4760104986877 93.02813648293964,267.51380577427824 C92.97522309711286,267.5516010498688 92.94498687664043,267.6196325459318 92.94498687664043,267.702782152231 C92.94498687664043,267.80860892388455 92.97522309711286,267.8690813648294 93.02813648293964,267.90687664041997 C93.08104986876641,267.9371128608924 93.19443569553806,267.95223097112864 93.3607349081365,267.95223097112864 L94.3282939632546,267.95223097112864 L94.3282939632546,269.3355380577428 L93.19443569553806,269.3355380577428 C92.66530183727035,269.3355380577428 92.25711286089239,269.20703412073493 91.97742782152231,268.9575853018373 C91.69774278215223,268.70057742782154 91.55412073490814,268.3301837270341 91.55412073490814,267.85396325459317 L91.55412073490814,265.9566404199475 C91.55412073490814,265.4955380577428 91.69018372703412,265.1327034120735 91.95475065616799,264.8832545931759 C92.21931758530184,264.6262467191601 92.58971128608924,264.4977427821523 93.0734908136483,264.4977427821523 L94.3282939632546,264.4977427821523 L94.3282939632546,265.88860892388453 L93.40608923884515,265.88860892388453 C93.15664041994751,265.88860892388453 93.03569553805775,265.97175853018376 93.03569553805775,266.13049868766404 C93.03569553805775,266.2212073490814 93.06593175853018,266.2892388451444 93.12640419947508,266.32703412073494 C93.18687664041995,266.3648293963255 93.28514435695539,266.3799475065617 93.43632545931759,266.3799475065617 L94.23002624671916,266.3799475065617 Z M96.58845144356957,265.88860892388453 L96.58845144356957,269.3355380577428 L95.15223097112862,269.3355380577428 L95.15223097112862,264.4977427821523 L97.02687664041996,264.4977427821523 C97.85081364829396,264.4977427821523 98.49333333333334,264.686719160105 98.95443569553807,265.0571128608924 C99.50624671916012,265.5030971128609 99.78593175853018,266.10782152230973 99.78593175853018,266.87884514435694 C99.78593175853018,267.61207349081366 99.55160104986876,268.2092388451444 99.07538057742782,268.6703412073491 C98.606719160105,269.1314435695538 97.99443569553806,269.3657742782152 97.25364829396327,269.3657742782152 C97.16293963254594,269.3657742782152 97.01931758530185,269.35821522309715 96.82278215223099,269.350656167979 L96.82278215223099,267.9295538057743 L97.04955380577428,267.9295538057743 C97.88860892388452,267.9295538057743 98.31191601049869,267.5818372703412 98.31191601049869,266.87884514435694 C98.31191601049869,266.2212073490814 97.89616797900263,265.88860892388453 97.07223097112862,265.88860892388453 L96.58845144356957,265.88860892388453 Z M101.90246719160106,265.88860892388453 L101.90246719160106,269.3355380577428 L100.46624671916011,269.3355380577428 L100.46624671916011,264.4977427821523 L102.34089238845145,264.4977427821523 C103.16482939632547,264.4977427821523 103.80734908136483,264.686719160105 104.26845144356956,265.0571128608924 C104.82026246719161,265.5030971128609 105.09994750656169,266.10782152230973 105.09994750656169,266.87884514435694 C105.09994750656169,267.61207349081366 104.86561679790026,268.2092388451444 104.38939632545933,268.6703412073491 C103.9207349081365,269.1314435695538 103.30845144356957,269.3657742782152 102.56766404199476,269.3657742782152 C102.47695538057744,269.3657742782152 102.33333333333334,269.35821522309715 102.13679790026248,269.350656167979 L102.13679790026248,267.9295538057743 L102.36356955380577,267.9295538057743 C103.20262467191601,267.9295538057743 103.62593175853019,267.5818372703412 103.62593175853019,266.87884514435694 C103.62593175853019,266.2212073490814 103.21018372703412,265.88860892388453 102.38624671916011,265.88860892388453 L101.90246719160106,265.88860892388453 Z M109.18939632545931,264.4977427821523 L107.82120734908136,266.6520734908137 L107.82120734908136,269.3355380577428 L106.38498687664043,269.3355380577428 L106.38498687664043,266.6520734908137 L105.00923884514437,264.4977427821523 L106.46813648293964,264.4977427821523 L107.08797900262468,265.4955380577428 L107.76073490813648,264.4977427821523 L109.18939632545931,264.4977427821523 Z M98.9090813648294,262.7062467191601 C98.84104986876642,262.74404199475066 98.8334908136483,262.834750656168 98.87884514435696,262.970813648294 C98.96199475065617,262.9934908136483 99.07538057742782,262.9783727034121 99.21144356955381,262.93301837270343 C99.2719160104987,262.88766404199475 99.28703412073492,262.81207349081365 99.24167979002625,262.7062467191601 C99.15097112860893,262.6835695538058 99.04514435695539,262.6835695538058 98.9090813648294,262.7062467191601 Z M98.87884514435696,262.50215223097115 C99.03002624671916,262.52482939632546 99.15097112860893,262.51727034120734 99.24167979002625,262.4719160104987 C99.28703412073492,262.38120734908136 99.28703412073492,262.30561679790026 99.24167979002625,262.23758530183727 C99.04514435695539,262.1997900262467 98.9090813648294,262.20734908136484 98.84104986876642,262.2753805774278 C98.80325459317586,262.38120734908136 98.81081364829397,262.4643569553806 98.87884514435696,262.50215223097115 Z M99.5742782152231,262.50215223097115 C99.74813648293964,262.5475065616798 99.89931758530184,262.5475065616798 100.03538057742783,262.50215223097115 C100.05805774278215,262.4190026246719 100.04293963254594,262.3434120734908 100.00514435695538,262.2753805774278 C99.8690813648294,262.2527034120735 99.74057742782153,262.23758530183727 99.60451443569555,262.23758530183727 C99.55916010498689,262.3282939632546 99.55160104986876,262.4190026246719 99.5742782152231,262.50215223097115 Z M98.18341207349081,261.874750656168 C98.31191601049869,261.98813648293964 98.41774278215223,262.08640419947506 98.47821522309712,262.1771128608924 C98.47821522309712,262.26026246719164 98.45553805774279,262.30561679790026 98.41774278215223,262.30561679790026 C98.28167979002626,262.30561679790026 98.1682939632546,262.2527034120735 98.0851443569554,262.13931758530185 C98.0851443569554,262.44923884514435 98.10782152230972,262.74404199475066 98.15317585301838,263.03128608923885 C98.15317585301838,263.1446719160105 98.11538057742783,263.2202624671916 98.04734908136484,263.2656167979003 C97.8734908136483,263.3336482939633 97.77522309711287,263.2731758530184 97.75254593175853,263.09931758530183 C97.77522309711287,262.6835695538058 97.77522309711287,262.3963254593176 97.75254593175853,262.23758530183727 C97.57868766404201,262.3963254593176 97.43506561679791,262.50215223097115 97.32167979002625,262.57018372703413 C97.10246719160105,262.7062467191601 96.9134908136483,262.7138057742782 96.7623097112861,262.6079790026247 C96.69427821522311,262.5399475065617 96.66404199475066,262.47947506561684 96.66404199475066,262.4416797900263 C96.68671916010499,262.4190026246719 96.74719160104988,262.3963254593176 96.86057742782153,262.37364829396324 C97.23853018372704,262.26026246719164 97.60136482939633,262.0334908136483 97.9490813648294,261.67821522309714 C97.99443569553806,261.61018372703415 97.91884514435696,261.5799475065617 97.7223097112861,261.5799475065617 C97.54089238845145,261.60262467191603 97.37459317585302,261.63286089238846 97.22341207349082,261.67821522309714 C97.11002624671917,261.67821522309714 97.07979002624673,261.63286089238846 97.12514435695539,261.54971128608923 C97.23853018372704,261.39097112860895 97.3594750656168,261.33805774278215 97.48797900262468,261.38341207349083 C97.63916010498689,261.40608923884514 97.7979002624672,261.40608923884514 97.9490813648294,261.38341207349083 C98.0171128608924,261.3607349081365 98.07002624671917,261.33805774278215 98.11538057742783,261.31538057742785 C98.18341207349081,261.31538057742785 98.25144356955381,261.3456167979003 98.31191601049869,261.41364829396326 C98.35727034120735,261.45900262467194 98.37238845144357,261.5119160104987 98.34971128608925,261.5799475065617 C98.30435695538058,261.6479790026247 98.25144356955381,261.7462467191601 98.18341207349081,261.874750656168 Z M99.5742782152231,262.93301837270343 C99.7254593175853,262.95569553805774 99.86152230971129,262.970813648294 99.96734908136483,262.970813648294 C100.08073490813649,262.9481364829397 100.11097112860892,262.8574278215223 100.06561679790028,262.7062467191601 C99.89175853018374,262.6835695538058 99.7254593175853,262.6835695538058 99.5742782152231,262.7062467191601 C99.52892388451444,262.78939632545934 99.52892388451444,262.87254593175857 99.5742782152231,262.93301837270343 Z M98.0851443569554,260.914750656168 C98.21364829396326,260.9374278215223 98.28167979002626,260.9601049868767 98.28167979002626,260.982782152231 C98.32703412073491,261.05081364829397 98.28167979002626,261.09616797900264 98.15317585301838,261.11884514435695 C97.8659317585302,261.1415223097113 97.58624671916012,261.11884514435695 97.32167979002625,261.05081364829397 C97.25364829396327,260.982782152231 97.27632545931759,260.9071916010499 97.38971128608924,260.8164829396326 C97.43506561679791,260.7711286089239 97.48797900262468,260.75601049868766 97.55601049868767,260.75601049868766 C97.66183727034121,260.7938057742782 97.84325459317586,260.85427821522313 98.0851443569554,260.914750656168 Z M100.36797900262468,261.0810498687664 C99.7934908136483,261.0356955380578 99.24923884514436,261.0356955380578 98.74278215223097,261.0810498687664 C98.65963254593177,261.10372703412077 98.57648293963256,261.1264041994751 98.51601049868768,261.1490813648294 C98.40262467191602,261.1490813648294 98.39506561679791,261.0810498687664 98.47821522309712,260.95254593175855 C98.6142782152231,260.8164829396326 98.74278215223097,260.7711286089239 98.87884514435696,260.8164829396326 C99.00734908136484,260.8391601049869 99.18876640419948,260.8391601049869 99.40797900262467,260.8164829396326 C99.62719160104987,260.8164829396326 99.84640419947507,260.83160104986877 100.06561679790028,260.85427821522313 C100.3075065616798,260.85427821522313 100.44356955380579,260.88451443569556 100.46624671916011,260.95254593175855 C100.48892388451443,261.02057742782154 100.4511286089239,261.0583727034121 100.36797900262468,261.0810498687664 Z M100.10341207349083,261.4438845144357 C100.05805774278215,261.55727034120736 100.03538057742783,261.68577427821526 100.03538057742783,261.84451443569554 C100.03538057742783,261.8898687664042 100.00514435695538,261.92010498687665 99.9371128608924,261.94278215223096 C99.89175853018374,261.9654593175853 99.81616797900263,261.9503412073491 99.70278215223098,261.91254593175853 C99.52892388451444,261.8671916010499 99.31727034120735,261.8671916010499 99.07538057742782,261.91254593175853 C98.98467191601051,261.9503412073491 98.92419947506562,261.9654593175853 98.87884514435696,261.94278215223096 C98.78813648293963,261.92010498687665 98.74278215223097,261.874750656168 98.74278215223097,261.8142782152231 C98.74278215223097,261.67821522309714 98.72010498687665,261.55727034120736 98.6823097112861,261.4438845144357 C98.65963254593177,261.38341207349083 98.66719160104988,261.32293963254597 98.71254593175854,261.2851443569554 C98.78057742782153,261.19443569553806 98.87884514435696,261.1793175853019 99.00734908136484,261.24734908136486 C99.16608923884516,261.27002624671917 99.33238845144358,261.27002624671917 99.50624671916012,261.24734908136486 C99.61963254593176,261.24734908136486 99.7179002624672,261.26246719160105 99.80104986876641,261.2851443569554 C99.89175853018374,261.2171128608924 99.96734908136483,261.2171128608924 100.03538057742783,261.2851443569554 C100.10341207349083,261.32293963254597 100.12608923884515,261.38341207349083 100.10341207349083,261.4438845144357 Z M99.67254593175853,261.4438845144357 C99.47601049868767,261.4212073490814 99.28703412073492,261.4212073490814 99.10561679790027,261.4438845144357 C99.02246719160105,261.48923884514437 98.98467191601051,261.54971128608923 99.00734908136484,261.61018372703415 C99.0527034120735,261.70089238845145 99.09805774278216,261.7311286089239 99.14341207349082,261.7084514435696 C99.29459317585302,261.68577427821526 99.47601049868767,261.68577427821526 99.67254593175853,261.7084514435696 C99.7179002624672,261.7084514435696 99.74813648293964,261.68577427821526 99.77081364829397,261.6479790026247 C99.7934908136483,261.53459317585305 99.75569553805775,261.46656167979006 99.67254593175853,261.4438845144357 Z M100.46624671916011,262.2753805774278 C100.44356955380579,262.38120734908136 100.42089238845145,262.47947506561684 100.39821522309711,262.57018372703413 C100.35286089238846,262.766719160105 100.34530183727034,262.9481364829397 100.36797900262468,263.09931758530183 C100.36797900262468,263.1900262467192 100.33018372703413,263.2429396325459 100.26971128608925,263.2656167979003 C100.17900262467192,263.3109711286089 100.0882939632546,263.3109711286089 100.00514435695538,263.2656167979003 C99.82372703412074,263.2202624671916 99.62719160104987,263.1900262467192 99.40797900262467,263.1673490813648 C99.29459317585302,263.1673490813648 99.18876640419948,263.1673490813648 99.07538057742782,263.1673490813648 C98.96199475065617,263.1900262467192 98.86372703412074,263.2202624671916 98.78057742782153,263.2656167979003 C98.71254593175854,263.2656167979003 98.66719160104988,263.25805774278217 98.64451443569554,263.23538057742786 C98.57648293963256,263.1900262467192 98.54624671916011,263.1371128608924 98.54624671916011,263.0690813648294 C98.56892388451445,262.66845144356955 98.56136482939633,262.3963254593176 98.51601049868768,262.23758530183727 C98.51601049868768,262.08640419947506 98.56136482939633,262.010813648294 98.64451443569554,262.010813648294 C98.71254593175854,262.0334908136483 98.78057742782153,262.0561679790026 98.84104986876642,262.078845144357 C99.04514435695539,262.0334908136483 99.21900262467193,262.01837270341207 99.37018372703413,262.04104986876644 C99.5742782152231,262.06372703412075 99.77081364829397,262.08640419947506 99.96734908136483,262.1090813648294 C100.10341207349083,262.04104986876644 100.18656167979003,262.01837270341207 100.2319160104987,262.04104986876644 C100.41333333333334,262.13175853018373 100.48892388451443,262.20734908136484 100.46624671916011,262.2753805774278 Z M101.38845144356956,261.1490813648294 C101.69837270341208,261.2171128608924 102.03853018372703,261.23979002624674 102.41648293963254,261.2171128608924 C102.46183727034122,261.26246719160105 102.46939632545933,261.31538057742785 102.44671916010499,261.38341207349083 C102.40136482939633,261.4438845144357 102.26530183727036,261.46656167979006 102.01585301837271,261.4438845144357 L102.01585301837271,261.77648293963256 L102.28041994750657,261.77648293963256 C102.3030971128609,261.79916010498687 102.31821522309713,261.82183727034123 102.31821522309713,261.84451443569554 C102.34089238845145,261.9352230971129 102.3030971128609,261.97301837270345 102.21994750656168,261.97301837270345 L102.01585301837271,261.97301837270345 L102.01585301837271,262.40388451443573 C102.19727034120736,262.38120734908136 102.32577427821522,262.35853018372705 102.41648293963254,262.3434120734908 C102.48451443569554,262.3207349081365 102.51475065616799,262.35097112860893 102.51475065616799,262.4416797900263 C102.51475065616799,262.47947506561684 102.40136482939633,262.52482939632546 102.18215223097113,262.57018372703413 C101.83443569553806,262.6835695538058 101.486719160105,262.766719160105 101.16167979002626,262.834750656168 C101.09364829396326,262.8574278215223 101.04073490813649,262.834750656168 100.99538057742782,262.766719160105 C100.95002624671918,262.6608923884515 100.95758530183727,262.5853018372704 101.02561679790027,262.5399475065617 C101.22215223097113,262.494593175853 101.44892388451444,262.4643569553806 101.69081364829397,262.4416797900263 L101.69081364829397,261.97301837270345 C101.55475065616798,261.9503412073491 101.4262467191601,261.97301837270345 101.29018372703413,262.04104986876644 C101.22215223097113,262.04104986876644 101.1843569553806,262.01837270341207 101.16167979002626,261.97301837270345 C101.20703412073492,261.84451443569554 101.2675065616798,261.77648293963256 101.35821522309712,261.77648293963256 C101.44892388451444,261.77648293963256 101.55475065616798,261.77648293963256 101.69081364829397,261.77648293963256 L101.69081364829397,261.4438845144357 C101.50939632545932,261.4212073490814 101.36577427821523,261.4438845144357 101.25994750656169,261.5119160104987 C101.19191601049869,261.5119160104987 101.14656167979004,261.48167979002625 101.1238845144357,261.41364829396326 C101.16923884514436,261.23979002624674 101.25994750656169,261.1490813648294 101.38845144356956,261.1490813648294 Z M102.80955380577429,260.95254593175855 C102.90026246719161,260.95254593175855 102.94561679790027,260.9979002624672 102.94561679790027,261.0810498687664 C102.92293963254593,261.2851443569554 103.0363254593176,261.3456167979003 103.27821522309712,261.2851443569554 L103.27821522309712,260.914750656168 C103.27821522309712,260.80892388451446 103.338687664042,260.75601049868766 103.47475065616798,260.75601049868766 C103.58813648293963,260.7711286089239 103.6410498687664,260.85427821522313 103.6410498687664,260.982782152231 L103.6410498687664,261.31538057742785 C103.97364829396327,261.3607349081365 104.11727034120736,261.27002624671917 104.0719160104987,261.05081364829397 C104.11727034120736,260.9601049868767 104.15506561679791,260.914750656168 104.20041994750656,260.914750656168 C104.26845144356956,260.9374278215223 104.31380577427822,260.9979002624672 104.33648293963256,261.0810498687664 C104.31380577427822,261.19443569553806 104.33648293963256,261.2851443569554 104.39695538057744,261.3456167979003 C104.41963254593176,261.48167979002625 104.36671916010499,261.54971128608923 104.23821522309711,261.54971128608923 C104.10215223097114,261.5043569553806 103.93585301837271,261.48167979002625 103.73931758530185,261.48167979002625 C103.30089238845144,261.45900262467194 102.9758530183727,261.48167979002625 102.77931758530184,261.54971128608923 C102.66593175853019,261.5648293963255 102.61301837270342,261.53459317585305 102.61301837270342,261.4438845144357 C102.70372703412073,261.40608923884514 102.73396325459318,261.27002624671917 102.71128608923885,261.05081364829397 C102.71128608923885,261.0054593175853 102.74908136482941,260.97522309711286 102.80955380577429,260.95254593175855 Z M102.58278215223098,261.6479790026247 C102.71128608923885,261.68577427821526 102.92293963254593,261.70089238845145 103.21018372703412,261.67821522309714 L104.20041994750656,261.67821522309714 C104.70687664041995,261.67821522309714 104.9638845144357,261.7084514435696 104.9638845144357,261.77648293963256 C104.94120734908137,261.84451443569554 104.89585301837272,261.91254593175853 104.82782152230972,261.97301837270345 C104.69931758530184,262.08640419947506 104.55569553805775,262.08640419947506 104.39695538057744,261.97301837270345 C104.04923884514437,261.8671916010499 103.7846719160105,261.82183727034123 103.60325459317586,261.84451443569554 C103.58813648293963,261.9352230971129 103.57301837270342,262.01837270341207 103.57301837270342,262.1090813648294 C103.88293963254594,262.13175853018373 104.09459317585302,262.1090813648294 104.20041994750656,262.04104986876644 C104.38183727034121,262.04104986876644 104.48010498687665,262.11664041994754 104.50278215223098,262.2753805774278 C104.43475065616798,262.562624671916 104.41963254593176,262.8574278215223 104.46498687664042,263.1673490813648 C104.41963254593176,263.25805774278217 104.34404199475065,263.3109711286089 104.23821522309711,263.3336482939633 C104.17018372703413,263.3336482939633 104.12482939632547,263.2958530183727 104.10215223097114,263.23538057742786 C104.10215223097114,262.9481364829397 104.11727034120736,262.6382152230971 104.13238845144357,262.30561679790026 C104.02656167979003,262.26026246719164 103.9282939632546,262.26026246719164 103.83758530183728,262.30561679790026 L103.83758530183728,263.0690813648294 C103.81490813648296,263.15223097112863 103.76955380577428,263.1975853018373 103.7090813648294,263.1975853018373 C103.59569553805775,263.2202624671916 103.55034120734909,263.15223097112863 103.57301837270342,263.0010498687664 L103.57301837270342,262.30561679790026 C103.44451443569554,262.28293963254595 103.338687664042,262.28293963254595 103.27821522309712,262.30561679790026 L103.27821522309712,263.0690813648294 C103.2555380577428,263.1371128608924 103.21018372703412,263.17490813648294 103.14215223097113,263.1975853018373 C103.05900262467192,263.17490813648294 103.02120734908138,263.1144356955381 103.0438845144357,263.0010498687664 C103.06656167979003,262.7818372703412 103.07412073490815,262.5475065616798 103.07412073490815,262.30561679790026 C102.99097112860893,262.28293963254595 102.93049868766406,262.28293963254595 102.91538057742783,262.30561679790026 C102.8927034120735,262.3963254593176 102.87758530183727,262.494593175853 102.87758530183727,262.6079790026247 C102.85490813648295,262.8045144356956 102.77175853018373,262.970813648294 102.61301837270342,263.09931758530183 C102.41648293963254,263.2127034120735 102.24262467191602,263.23538057742786 102.08388451443571,263.1673490813648 C102.01585301837271,263.1219947506562 101.97805774278216,263.0690813648294 101.95538057742783,263.0010498687664 C101.95538057742783,262.95569553805774 102.00073490813648,262.93301837270343 102.08388451443571,262.93301837270343 C102.28041994750657,262.93301837270343 102.43916010498688,262.8574278215223 102.54498687664042,262.7062467191601 C102.63569553805775,262.47947506561684 102.65837270341208,262.28293963254595 102.61301837270342,262.1090813648294 C102.61301837270342,262.04104986876644 102.66593175853019,262.010813648294 102.77931758530184,262.010813648294 C102.91538057742783,262.078845144357 103.08923884514437,262.1090813648294 103.30845144356957,262.1090813648294 C103.33112860892389,262.01837270341207 103.338687664042,261.9352230971129 103.338687664042,261.84451443569554 C103.01364829396326,261.84451443569554 102.77175853018373,261.8671916010499 102.61301837270342,261.91254593175853 C102.5298687664042,262.01837270341207 102.43916010498688,262.0334908136483 102.34845144356956,261.94278215223096 C102.3711286089239,261.7916010498688 102.44671916010499,261.68577427821526 102.58278215223098,261.6479790026247 Z M106.94435695538058,262.93301837270343 L106.94435695538058,262.5399475065617 C106.5966404199475,262.5399475065617 106.38498687664043,262.5475065616798 106.31695538057744,262.57018372703413 C106.24892388451444,262.6155380577428 106.23380577427822,262.7062467191601 106.24892388451444,262.834750656168 C106.27160104986876,262.88010498687663 106.2942782152231,262.9103412073491 106.31695538057744,262.93301837270343 L106.94435695538058,262.93301837270343 Z M108.04041994750656,262.66845144356955 L108.04041994750656,262.5399475065617 L107.37522309711287,262.5399475065617 L107.37522309711287,262.93301837270343 L107.87412073490815,262.93301837270343 C107.97994750656169,262.93301837270343 108.04041994750656,262.8498687664042 108.04041994750656,262.66845144356955 Z M107.37522309711287,262.3434120734908 L108.04041994750656,262.3434120734908 L108.04041994750656,262.1090813648294 C108.04041994750656,262.01837270341207 108.00262467191601,261.97301837270345 107.94215223097115,261.97301837270345 L107.37522309711287,261.97301837270345 L107.37522309711287,262.3434120734908 Z M106.94435695538058,261.97301837270345 L106.41522309711287,261.97301837270345 C106.33207349081366,261.97301837270345 106.27160104986876,262.010813648294 106.24892388451444,262.078845144357 L106.24892388451444,262.30561679790026 C106.2942782152231,262.35097112860893 106.52860892388452,262.35853018372705 106.94435695538058,262.3434120734908 L106.94435695538058,261.97301837270345 Z M106.12041994750658,261.7084514435696 C106.2942782152231,261.75380577427825 106.57396325459318,261.77648293963256 106.94435695538058,261.77648293963256 C106.94435695538058,261.6479790026247 106.93679790026248,261.55727034120736 106.91412073490815,261.5119160104987 C106.91412073490815,261.40608923884514 106.9594750656168,261.3456167979003 107.04262467191602,261.3456167979003 C107.11065616797902,261.3456167979003 107.18624671916011,261.3682939632546 107.27695538057743,261.41364829396326 C107.36766404199476,261.5043569553806 107.3979002624672,261.61018372703415 107.37522309711287,261.7462467191601 L107.90435695538059,261.77648293963256 C107.99506561679792,261.75380577427825 108.08577427821523,261.7311286089239 108.16892388451444,261.7084514435696 C108.23695538057743,261.68577427821526 108.32766404199475,261.7462467191601 108.43349081364829,261.874750656168 C108.47884514435697,261.92010498687665 108.47884514435697,261.99569553805776 108.43349081364829,262.1090813648294 C108.41081364829397,262.1771128608924 108.40325459317586,262.23002624671915 108.40325459317586,262.2753805774278 L108.40325459317586,263.0690813648294 C108.40325459317586,263.2429396325459 108.30498687664043,263.3336482939633 108.10089238845146,263.3336482939633 C107.99506561679792,263.2429396325459 107.87412073490815,263.1900262467192 107.73805774278216,263.1673490813648 C106.92167979002625,263.1673490813648 106.45301837270341,263.17490813648294 106.31695538057744,263.1975853018373 C106.23380577427822,263.2429396325459 106.15065616797901,263.2731758530184 106.09018372703413,263.2958530183727 C105.9994750656168,263.31853018372703 105.94656167979004,263.2882939632546 105.9238845144357,263.1975853018373 L105.9238845144357,262.4719160104987 C105.90120734908137,262.20734908136484 105.87853018372704,262.010813648294 105.85585301837271,261.874750656168 C105.83317585301839,261.7916010498688 105.85585301837271,261.7311286089239 105.9238845144357,261.7084514435696 C105.96923884514436,261.68577427821526 106.02971128608925,261.68577427821526 106.12041994750658,261.7084514435696 Z M107.73805774278216,260.78624671916015 C107.76073490813648,260.7635695538058 107.80608923884515,260.75601049868766 107.87412073490815,260.75601049868766 C107.95727034120736,260.7711286089239 108.00262467191601,260.8164829396326 108.00262467191601,260.88451443569556 C108.18404199475066,260.97522309711286 108.41081364829397,261.0356955380578 108.69805774278217,261.0810498687664 C108.8794750656168,261.1264041994751 109.030656167979,261.17175853018375 109.15916010498688,261.2171128608924 C109.098687664042,261.3682939632546 109.01553805774279,261.46656167979006 108.93238845144357,261.5119160104987 C108.84167979002625,261.53459317585305 108.74341207349082,261.5119160104987 108.63002624671917,261.4438845144357 C108.35034120734909,261.2927034120735 108.138687664042,261.19443569553806 108.00262467191601,261.1490813648294 C107.97994750656169,261.19443569553806 107.97238845144358,261.31538057742785 107.97238845144358,261.5119160104987 C107.97238845144358,261.5799475065617 107.92703412073492,261.60262467191603 107.83632545931759,261.5799475065617 C107.75317585301838,261.5799475065617 107.70782152230971,261.53459317585305 107.70782152230971,261.4438845144357 C107.75317585301838,261.27002624671917 107.73805774278216,261.1793175853019 107.67758530183727,261.1793175853019 C107.58687664041996,261.27002624671917 107.51128608923885,261.32293963254597 107.44325459317585,261.3456167979003 C107.29207349081366,261.3682939632546 107.22404199475066,261.3456167979003 107.24671916010499,261.2851443569554 C107.3979002624672,261.17175853018375 107.56419947506562,261.0054593175853 107.73805774278216,260.78624671916015 Z M106.5134908136483,260.75601049868766 C106.60419947506563,260.71065616797904 106.6571128608924,260.74089238845147 106.67979002624672,260.85427821522313 C106.77049868766404,260.914750656168 106.84608923884515,260.9601049868767 106.91412073490815,260.982782152231 C107.11065616797902,261.02813648293966 107.20892388451445,261.09616797900264 107.20892388451445,261.1793175853019 C107.18624671916011,261.2019947506562 107.16356955380579,261.2171128608924 107.14845144356957,261.2171128608924 C106.98971128608925,261.19443569553806 106.83853018372704,261.17175853018375 106.67979002624672,261.1490813648294 C106.6571128608924,261.23979002624674 106.64955380577427,261.32293963254597 106.64955380577427,261.41364829396326 C106.64955380577427,261.5270341207349 106.60419947506563,261.5799475065617 106.5134908136483,261.5799475065617 C106.43034120734909,261.5799475065617 106.36986876640421,261.55727034120736 106.354750656168,261.5119160104987 C106.33207349081366,261.4212073490814 106.31695538057744,261.33805774278215 106.31695538057744,261.24734908136486 C106.31695538057744,261.1793175853019 106.286719160105,261.1566404199475 106.218687664042,261.1793175853019 C105.9314435695538,261.3607349081365 105.68955380577428,261.4438845144357 105.49301837270342,261.4438845144357 C105.27380577427823,261.38341207349083 105.17553805774278,261.2927034120735 105.190656167979,261.1793175853019 C105.34939632545932,261.1415223097113 105.49301837270342,261.10372703412077 105.6215223097113,261.0810498687664 C106.02215223097113,261.02057742782154 106.31695538057744,260.9071916010499 106.5134908136483,260.75601049868766 Z" fill="#D32F2F"/>
</svg>